<?xml version="1.0" encoding="utf-8"?>
<!-- Generator: Adobe Illustrator 15.0.0, SVG Export Plug-In . SVG Version: 6.00 Build 0)  -->
<!DOCTYPE svg PUBLIC "-//W3C//DTD SVG 1.1//EN" "http://www.w3.org/Graphics/SVG/1.1/DTD/svg11.dtd">
<svg version="1.1" id="Capa_1" xmlns="http://www.w3.org/2000/svg" xmlns:xlink="http://www.w3.org/1999/xlink" x="0px" y="0px"
	 width="262px" height="92px" viewBox="0 0 262 92" enable-background="new 0 0 262 92" xml:space="preserve">
<g>
	<g>
		<g>
			<g>
				<path fill="#333333" d="M97.063,56.708v-0.28c0.389-0.044,0.68-0.191,0.875-0.438c0.195-0.249,0.527-0.931,1-2.042l3.152-7.429
					h0.303l3.77,8.581c0.252,0.567,0.453,0.919,0.604,1.054c0.148,0.135,0.402,0.227,0.758,0.274v0.28h-3.85v-0.28
					c0.441-0.039,0.729-0.087,0.855-0.144c0.129-0.057,0.191-0.195,0.191-0.416c0-0.072-0.023-0.203-0.072-0.39
					c-0.051-0.187-0.119-0.382-0.209-0.588l-0.605-1.455h-3.986c-0.395,0.989-0.629,1.594-0.705,1.812
					c-0.076,0.219-0.115,0.392-0.115,0.519c0,0.256,0.104,0.432,0.311,0.53c0.129,0.06,0.369,0.104,0.723,0.132v0.28H97.063z
					 M103.581,52.821l-1.734-4.168l-1.742,4.168H103.581z"/>
				<path fill="#333333" d="M110.776,49.864v4.73c0,0.335,0.049,0.604,0.141,0.805c0.184,0.374,0.518,0.562,1.006,0.562
					c0.334,0,0.662-0.11,0.982-0.332c0.184-0.125,0.367-0.295,0.555-0.51v-4.052c0-0.379-0.074-0.627-0.223-0.746
					c-0.146-0.118-0.443-0.188-0.887-0.214v-0.245h2.387v5.203c0,0.335,0.061,0.565,0.182,0.69c0.119,0.125,0.375,0.183,0.766,0.166
					v0.209c-0.271,0.072-0.473,0.127-0.6,0.164c-0.129,0.039-0.342,0.105-0.643,0.203c-0.129,0.045-0.41,0.15-0.842,0.316
					c-0.025,0-0.041-0.01-0.045-0.031c-0.006-0.022-0.008-0.049-0.008-0.078v-1.188c-0.334,0.397-0.641,0.694-0.916,0.887
					c-0.418,0.295-0.861,0.442-1.33,0.442c-0.43,0-0.832-0.152-1.211-0.458c-0.385-0.302-0.578-0.808-0.578-1.519v-3.84
					c0-0.392-0.082-0.652-0.25-0.783c-0.109-0.084-0.34-0.143-0.695-0.176v-0.209h2.209V49.864z"/>
				<path fill="#333333" d="M120.516,49.896v0.532h-1.506l-0.016,4.254c0,0.375,0.031,0.658,0.096,0.852
					c0.117,0.34,0.35,0.51,0.695,0.51c0.176,0,0.33-0.043,0.461-0.127c0.129-0.082,0.279-0.217,0.447-0.397l0.191,0.162
					l-0.162,0.222c-0.254,0.346-0.525,0.59-0.812,0.732c-0.287,0.141-0.562,0.213-0.828,0.213c-0.582,0-0.977-0.258-1.182-0.775
					c-0.113-0.279-0.172-0.67-0.172-1.167v-4.477h-0.805c-0.025-0.017-0.043-0.031-0.055-0.048
					c-0.012-0.016-0.018-0.032-0.018-0.059c0-0.048,0.01-0.087,0.031-0.113s0.094-0.09,0.211-0.188
					c0.34-0.28,0.584-0.51,0.736-0.685c0.148-0.174,0.504-0.637,1.059-1.385c0.066,0,0.104,0.004,0.117,0.014
					c0.012,0.012,0.016,0.048,0.016,0.111v1.819H120.516z"/>
				<path fill="#333333" d="M122.856,50.793c0.621-0.679,1.424-1.018,2.404-1.018c0.975,0,1.783,0.32,2.424,0.962
					c0.641,0.64,0.961,1.491,0.961,2.558c0,0.979-0.311,1.832-0.93,2.557c-0.621,0.723-1.426,1.086-2.41,1.086
					c-0.945,0-1.748-0.348-2.4-1.042c-0.656-0.694-0.984-1.567-0.984-2.616C121.92,52.299,122.233,51.471,122.856,50.793z
					 M124.036,50.604c-0.494,0.449-0.74,1.223-0.74,2.32c0,0.877,0.199,1.695,0.596,2.451c0.396,0.762,0.949,1.14,1.656,1.14
					c0.551,0,0.977-0.254,1.277-0.763c0.297-0.508,0.445-1.172,0.445-1.994c0-0.852-0.189-1.654-0.57-2.408
					c-0.377-0.754-0.93-1.13-1.65-1.13C124.659,50.221,124.321,50.349,124.036,50.604z"/>
				<path fill="#333333" d="M129.836,56.463c0.453-0.039,0.754-0.117,0.9-0.239c0.148-0.121,0.223-0.378,0.223-0.772V52.12
					c0-0.486-0.045-0.834-0.137-1.043c-0.092-0.212-0.258-0.316-0.5-0.316c-0.049,0-0.113,0.008-0.195,0.02
					s-0.166,0.029-0.254,0.047v-0.242c0.279-0.099,0.566-0.201,0.861-0.304c0.295-0.104,0.498-0.179,0.611-0.223
					c0.246-0.093,0.498-0.199,0.758-0.315c0.035,0,0.055,0.012,0.062,0.035c0.006,0.025,0.012,0.076,0.012,0.156v1.211
					c0.316-0.438,0.623-0.781,0.914-1.027c0.295-0.246,0.601-0.369,0.916-0.369c0.25,0,0.457,0.075,0.617,0.227
					c0.155,0.148,0.233,0.339,0.233,0.564c0,0.203-0.061,0.371-0.182,0.51c-0.121,0.138-0.271,0.207-0.453,0.207
					c-0.188,0-0.375-0.086-0.563-0.258c-0.191-0.174-0.339-0.259-0.449-0.259c-0.17,0-0.385,0.138-0.635,0.417
					c-0.253,0.278-0.378,0.564-0.378,0.859v3.334c0,0.423,0.101,0.718,0.298,0.882c0.194,0.167,0.522,0.244,0.979,0.233v0.244
					h-3.641v-0.246H129.836z"/>
				<path fill="#333333" d="M135.77,56.5c0.527-0.049,0.859-0.139,0.998-0.271c0.137-0.13,0.207-0.483,0.207-1.06v-3.525
					c0-0.318-0.021-0.541-0.067-0.664c-0.072-0.202-0.229-0.304-0.466-0.304c-0.055,0-0.104,0.005-0.157,0.015
					c-0.054,0.012-0.199,0.051-0.447,0.119v-0.229l0.317-0.104c0.863-0.281,1.464-0.493,1.804-0.637
					c0.14-0.061,0.228-0.088,0.265-0.088c0.01,0.033,0.018,0.07,0.018,0.108v5.308c0,0.562,0.068,0.914,0.205,1.057
					c0.133,0.145,0.438,0.234,0.918,0.273v0.207h-3.592V56.5H135.77z M136.945,46.62c0.148-0.15,0.33-0.228,0.546-0.228
					c0.213,0,0.393,0.075,0.545,0.224c0.149,0.15,0.226,0.333,0.226,0.549c0,0.211-0.074,0.393-0.226,0.541
					c-0.152,0.149-0.332,0.225-0.545,0.225c-0.216,0-0.396-0.074-0.546-0.225c-0.148-0.149-0.223-0.33-0.223-0.541
					S136.797,46.772,136.945,46.62z"/>
				<path fill="#333333" d="M144.92,49.961c0.195,0.104,0.387,0.246,0.566,0.429v-2.349c0-0.303-0.033-0.508-0.098-0.623
					c-0.068-0.112-0.226-0.168-0.478-0.168c-0.062,0-0.113,0.002-0.156,0.008c-0.045,0.005-0.144,0.015-0.295,0.027v-0.242
					l0.604-0.155c0.222-0.06,0.443-0.12,0.664-0.185c0.224-0.065,0.416-0.127,0.584-0.187c0.08-0.024,0.209-0.071,0.394-0.14
					l0.045,0.015l-0.015,0.774c-0.006,0.281-0.012,0.57-0.016,0.869c-0.006,0.297-0.008,0.594-0.008,0.883l-0.016,6.037
					c0,0.32,0.041,0.545,0.119,0.674c0.078,0.127,0.287,0.191,0.627,0.191c0.055,0,0.108-0.001,0.162-0.003
					c0.055-0.003,0.108-0.009,0.164-0.021v0.244c-0.031,0.011-0.388,0.133-1.072,0.369l-1.16,0.436l-0.053-0.065v-0.909
					c-0.275,0.301-0.515,0.516-0.715,0.644c-0.361,0.222-0.775,0.332-1.248,0.332c-0.84,0-1.517-0.323-2.037-0.972
					c-0.521-0.646-0.779-1.396-0.779-2.25c0-1.069,0.311-1.986,0.934-2.754c0.623-0.765,1.387-1.147,2.287-1.147
					C144.288,49.725,144.62,49.804,144.92,49.961z M145.133,55.709c0.236-0.226,0.354-0.439,0.354-0.643v-3.17
					c0-0.641-0.17-1.092-0.514-1.355c-0.342-0.264-0.676-0.396-1-0.396c-0.621,0-1.104,0.274-1.447,0.824
					c-0.346,0.549-0.518,1.225-0.518,2.028c0,0.793,0.182,1.5,0.549,2.121c0.369,0.619,0.916,0.93,1.646,0.93
					C144.586,56.049,144.896,55.937,145.133,55.709z"/>
				<path fill="#333333" d="M150.204,53.45c0.45-0.296,1.356-0.697,2.713-1.205v-0.627c0-0.504-0.051-0.854-0.147-1.05
					c-0.168-0.331-0.517-0.495-1.043-0.495c-0.25,0-0.488,0.062-0.718,0.192c-0.227,0.132-0.34,0.313-0.34,0.546
					c0,0.059,0.015,0.159,0.039,0.299c0.021,0.143,0.035,0.23,0.035,0.27c0,0.276-0.093,0.469-0.272,0.576
					c-0.105,0.063-0.228,0.098-0.369,0.098c-0.222,0-0.394-0.072-0.511-0.219c-0.118-0.146-0.178-0.307-0.178-0.483
					c0-0.345,0.215-0.706,0.642-1.082c0.424-0.378,1.051-0.565,1.87-0.565c0.955,0,1.604,0.311,1.943,0.931
					c0.182,0.342,0.272,0.836,0.272,1.485v2.965c0,0.285,0.021,0.481,0.062,0.59c0.063,0.193,0.196,0.289,0.397,0.289
					c0.113,0,0.205-0.019,0.279-0.053c0.074-0.033,0.203-0.117,0.387-0.25v0.383c-0.158,0.191-0.33,0.352-0.51,0.474
					c-0.277,0.188-0.557,0.28-0.844,0.28c-0.334,0-0.578-0.107-0.727-0.323c-0.152-0.22-0.232-0.478-0.248-0.776
					c-0.375,0.324-0.695,0.565-0.961,0.723c-0.449,0.269-0.873,0.398-1.277,0.398c-0.424,0-0.791-0.146-1.102-0.445
					c-0.312-0.297-0.466-0.676-0.466-1.135C149.133,54.522,149.488,53.928,150.204,53.45z M152.917,52.614
					c-0.567,0.188-1.035,0.395-1.405,0.62c-0.709,0.438-1.062,0.937-1.062,1.493c0,0.447,0.146,0.777,0.443,0.988
					c0.19,0.141,0.405,0.207,0.641,0.207c0.326,0,0.637-0.09,0.936-0.271s0.449-0.414,0.449-0.693L152.917,52.614L152.917,52.614z"
					/>
				<path fill="#333333" d="M160.534,49.961c0.196,0.104,0.389,0.246,0.569,0.429v-2.349c0-0.303-0.033-0.508-0.102-0.623
					c-0.064-0.112-0.225-0.168-0.475-0.168c-0.062,0-0.111,0.002-0.156,0.008c-0.041,0.005-0.145,0.015-0.295,0.027v-0.242
					l0.607-0.155c0.219-0.06,0.44-0.12,0.664-0.185c0.221-0.065,0.416-0.127,0.582-0.187c0.079-0.024,0.209-0.071,0.393-0.14
					l0.043,0.015l-0.014,0.774c-0.004,0.281-0.011,0.57-0.017,0.869c-0.004,0.297-0.006,0.594-0.006,0.883l-0.017,6.037
					c0,0.32,0.039,0.545,0.119,0.674c0.078,0.127,0.285,0.191,0.629,0.191c0.051,0,0.107-0.001,0.162-0.003
					c0.055-0.003,0.109-0.009,0.16-0.021v0.244c-0.027,0.011-0.385,0.133-1.07,0.369l-1.16,0.436l-0.051-0.065v-0.909
					c-0.274,0.301-0.514,0.516-0.717,0.644c-0.359,0.222-0.777,0.332-1.248,0.332c-0.84,0-1.518-0.323-2.037-0.972
					c-0.519-0.647-0.779-1.396-0.779-2.25c0-1.069,0.312-1.986,0.935-2.754c0.623-0.765,1.386-1.147,2.289-1.147
					C159.904,49.725,160.232,49.804,160.534,49.961z M160.747,55.709c0.239-0.226,0.356-0.439,0.356-0.643v-3.17
					c0-0.641-0.172-1.092-0.514-1.355c-0.344-0.264-0.676-0.396-1.002-0.396c-0.619,0-1.102,0.274-1.449,0.824
					c-0.344,0.549-0.516,1.225-0.516,2.028c0,0.793,0.184,1.5,0.551,2.121c0.367,0.619,0.914,0.93,1.643,0.93
					C160.204,56.049,160.512,55.937,160.747,55.709z"/>
				<path fill="#333333" d="M168.887,56.427c0.615-0.044,1.014-0.136,1.197-0.274c0.182-0.14,0.271-0.502,0.271-1.085v-6.731
					c0-0.556-0.09-0.916-0.271-1.074c-0.184-0.16-0.582-0.254-1.197-0.284v-0.28h4.477v0.28c-0.616,0.03-1.016,0.124-1.194,0.284
					c-0.185,0.158-0.274,0.52-0.274,1.074v6.731c0,0.583,0.092,0.945,0.274,1.085c0.181,0.141,0.578,0.23,1.194,0.274v0.28h-4.477
					V56.427z"/>
				<path fill="#333333" d="M174.622,56.5c0.351-0.043,0.596-0.131,0.733-0.263c0.142-0.13,0.211-0.421,0.211-0.875v-3.754
					c0-0.312-0.03-0.53-0.088-0.66c-0.096-0.185-0.287-0.278-0.578-0.278c-0.043,0-0.088,0.002-0.137,0.008
					c-0.047,0.005-0.104,0.013-0.174,0.021v-0.258c0.205-0.061,0.68-0.213,1.434-0.459l0.695-0.229c0.035,0,0.055,0.012,0.064,0.037
					c0.008,0.023,0.012,0.058,0.012,0.104v1.085c0.449-0.424,0.803-0.714,1.061-0.872c0.383-0.242,0.781-0.361,1.193-0.361
					c0.336,0,0.641,0.096,0.914,0.289c0.533,0.373,0.797,1.041,0.797,2.002v3.449c0,0.354,0.072,0.612,0.215,0.77
					c0.142,0.158,0.379,0.238,0.709,0.244v0.207h-3.156V56.5c0.363-0.051,0.613-0.148,0.757-0.299
					c0.143-0.152,0.215-0.479,0.215-0.98v-3.153c0-0.425-0.078-0.774-0.235-1.054c-0.156-0.277-0.445-0.418-0.867-0.418
					c-0.289,0-0.582,0.1-0.881,0.297c-0.168,0.113-0.384,0.3-0.646,0.561v4.139c0,0.354,0.078,0.593,0.234,0.713
					c0.16,0.119,0.408,0.188,0.75,0.195v0.207h-3.23L174.622,56.5L174.622,56.5z"/>
				<path fill="#333333" d="M187.154,49.961c0.195,0.104,0.386,0.246,0.568,0.429v-2.349c0-0.303-0.033-0.508-0.1-0.623
					c-0.066-0.112-0.225-0.168-0.477-0.168c-0.062,0-0.111,0.002-0.156,0.008c-0.045,0.005-0.143,0.015-0.295,0.027v-0.242
					l0.604-0.155c0.224-0.06,0.443-0.12,0.666-0.185c0.222-0.065,0.416-0.127,0.582-0.187c0.082-0.024,0.211-0.071,0.394-0.14
					l0.045,0.015l-0.016,0.774c-0.007,0.281-0.011,0.57-0.017,0.869c-0.004,0.297-0.007,0.594-0.007,0.883l-0.016,6.037
					c0,0.32,0.039,0.545,0.119,0.674c0.078,0.127,0.287,0.191,0.629,0.191c0.053,0,0.107-0.001,0.162-0.003
					c0.053-0.003,0.109-0.009,0.162-0.021v0.244c-0.031,0.011-0.387,0.133-1.072,0.369l-1.158,0.436l-0.053-0.065v-0.909
					c-0.275,0.301-0.514,0.516-0.717,0.644c-0.359,0.222-0.775,0.332-1.248,0.332c-0.838,0-1.516-0.323-2.035-0.972
					c-0.519-0.647-0.781-1.396-0.781-2.25c0-1.069,0.312-1.986,0.937-2.754c0.621-0.765,1.385-1.147,2.285-1.147
					C186.523,49.725,186.854,49.804,187.154,49.961z M187.368,55.709c0.235-0.226,0.354-0.439,0.354-0.643v-3.17
					c0-0.641-0.17-1.092-0.514-1.355c-0.344-0.263-0.676-0.396-1-0.396c-0.621,0-1.105,0.274-1.449,0.824
					c-0.344,0.549-0.518,1.225-0.518,2.028c0,0.793,0.184,1.5,0.551,2.121c0.365,0.619,0.916,0.93,1.643,0.93
					C186.82,56.049,187.131,55.937,187.368,55.709z"/>
				<path fill="#333333" d="M196.104,50.497c0.521,0.48,0.783,1.162,0.783,2.043h-4.693c0.052,1.143,0.31,1.972,0.777,2.492
					c0.465,0.521,1.021,0.783,1.662,0.783c0.518,0,0.953-0.137,1.307-0.406c0.355-0.271,0.685-0.652,0.984-1.149l0.258,0.088
					c-0.201,0.627-0.58,1.207-1.135,1.739c-0.553,0.533-1.232,0.8-2.035,0.8c-0.926,0-1.643-0.351-2.146-1.05
					c-0.507-0.699-0.759-1.506-0.759-2.416c0-0.99,0.295-1.847,0.879-2.564c0.587-0.72,1.353-1.079,2.293-1.079
					C194.975,49.776,195.583,50.017,196.104,50.497z M192.564,51.063c-0.16,0.266-0.271,0.602-0.342,1.005h3.119
					c-0.055-0.494-0.146-0.86-0.281-1.103c-0.24-0.434-0.645-0.65-1.211-0.65C193.29,50.315,192.861,50.563,192.564,51.063z"/>
				<path fill="#333333" d="M198.27,59.758c0.459-0.028,0.752-0.127,0.875-0.295c0.125-0.166,0.187-0.43,0.187-0.791v-7.092
					c0-0.375-0.043-0.615-0.133-0.722c-0.095-0.104-0.265-0.159-0.517-0.159c-0.055,0-0.104,0.004-0.149,0.008
					c-0.046,0.006-0.115,0.016-0.205,0.03v-0.245l0.702-0.228c0.025-0.005,0.521-0.177,1.486-0.511c0.023,0,0.043,0.012,0.055,0.031
					c0.013,0.022,0.021,0.049,0.021,0.077v0.998c0.322-0.323,0.609-0.563,0.854-0.725c0.445-0.275,0.9-0.413,1.367-0.413
					c0.681,0,1.265,0.289,1.756,0.867c0.49,0.578,0.734,1.369,0.734,2.373c0,0.985-0.297,1.877-0.883,2.68
					c-0.59,0.803-1.328,1.203-2.219,1.203c-0.277,0-0.516-0.034-0.719-0.104c-0.314-0.103-0.604-0.294-0.871-0.568v2.423
					c0,0.498,0.08,0.804,0.244,0.918c0.162,0.112,0.518,0.188,1.063,0.229v0.258h-3.649V59.758L198.27,59.758z M201.184,56.09
					c0.252,0.166,0.553,0.248,0.898,0.248c0.531,0,0.984-0.265,1.361-0.793s0.565-1.266,0.565-2.211
					c0-0.904-0.194-1.582-0.588-2.029c-0.392-0.447-0.844-0.672-1.362-0.672c-0.363,0-0.695,0.113-0.996,0.337
					s-0.451,0.442-0.451,0.659v3.713C200.738,55.677,200.928,55.927,201.184,56.09z"/>
				<path fill="#333333" d="M211.717,50.497c0.521,0.48,0.785,1.162,0.785,2.043h-4.691c0.049,1.143,0.308,1.972,0.773,2.492
					c0.469,0.521,1.021,0.783,1.664,0.783c0.518,0,0.951-0.137,1.309-0.406c0.354-0.271,0.682-0.652,0.98-1.149l0.26,0.088
					c-0.201,0.627-0.58,1.207-1.133,1.739c-0.557,0.533-1.234,0.8-2.037,0.8c-0.928,0-1.643-0.351-2.145-1.05
					c-0.508-0.699-0.76-1.506-0.76-2.416c0-0.99,0.293-1.847,0.881-2.564c0.584-0.72,1.348-1.079,2.289-1.079
					C210.586,49.776,211.195,50.017,211.717,50.497z M208.178,51.063c-0.156,0.266-0.271,0.602-0.34,1.005h3.119
					c-0.055-0.494-0.148-0.86-0.281-1.103c-0.242-0.434-0.645-0.65-1.211-0.65C208.902,50.315,208.475,50.563,208.178,51.063z"/>
				<path fill="#333333" d="M214.083,56.5c0.351-0.043,0.597-0.131,0.737-0.263c0.14-0.13,0.209-0.421,0.209-0.875v-3.754
					c0-0.312-0.026-0.53-0.09-0.66c-0.092-0.185-0.285-0.278-0.576-0.278c-0.043,0-0.09,0.002-0.137,0.008
					c-0.045,0.005-0.104,0.013-0.172,0.021v-0.258c0.201-0.061,0.68-0.213,1.432-0.459l0.697-0.229c0.031,0,0.055,0.012,0.062,0.037
					c0.008,0.023,0.012,0.058,0.012,0.104v1.085c0.453-0.424,0.808-0.714,1.062-0.872c0.385-0.242,0.783-0.361,1.197-0.361
					c0.332,0,0.639,0.096,0.914,0.289c0.528,0.373,0.797,1.041,0.797,2.002v3.449c0,0.354,0.067,0.612,0.211,0.77
					c0.141,0.158,0.379,0.238,0.713,0.244v0.207h-3.156V56.5c0.359-0.051,0.611-0.148,0.754-0.299
					c0.143-0.152,0.213-0.479,0.213-0.98v-3.153c0-0.425-0.076-0.774-0.234-1.054c-0.156-0.277-0.444-0.418-0.867-0.418
					c-0.289,0-0.582,0.1-0.879,0.297c-0.17,0.113-0.385,0.3-0.647,0.561v4.139c0,0.354,0.08,0.593,0.235,0.713
					c0.156,0.119,0.408,0.188,0.744,0.195v0.207h-3.229L214.083,56.5L214.083,56.5z"/>
				<path fill="#333333" d="M226.618,49.961c0.196,0.104,0.385,0.246,0.567,0.429v-2.349c0-0.303-0.033-0.508-0.1-0.623
					c-0.068-0.112-0.225-0.168-0.477-0.168c-0.06,0-0.111,0.002-0.154,0.008c-0.045,0.005-0.143,0.015-0.297,0.027v-0.242
					l0.607-0.155c0.221-0.06,0.44-0.12,0.664-0.185c0.223-0.065,0.418-0.127,0.584-0.187c0.075-0.024,0.209-0.071,0.391-0.14
					l0.045,0.015l-0.014,0.774c-0.004,0.281-0.011,0.57-0.017,0.869c-0.006,0.297-0.008,0.594-0.008,0.883l-0.015,6.037
					c0,0.32,0.039,0.545,0.117,0.674c0.078,0.127,0.289,0.191,0.627,0.191c0.055,0,0.109-0.001,0.164-0.003
					c0.055-0.003,0.107-0.009,0.162-0.021v0.244c-0.029,0.011-0.387,0.133-1.07,0.369l-1.162,0.436l-0.051-0.065v-0.909
					c-0.274,0.301-0.516,0.516-0.717,0.644c-0.359,0.222-0.777,0.332-1.248,0.332c-0.84,0-1.518-0.323-2.037-0.972
					c-0.521-0.646-0.779-1.396-0.779-2.25c0-1.069,0.312-1.986,0.937-2.754c0.623-0.765,1.386-1.147,2.287-1.147
					C225.986,49.725,226.316,49.804,226.618,49.961z M226.833,55.709c0.235-0.226,0.354-0.439,0.354-0.643v-3.17
					c0-0.641-0.172-1.092-0.515-1.355c-0.34-0.264-0.676-0.396-1-0.396c-0.621,0-1.104,0.274-1.448,0.824
					c-0.347,0.549-0.519,1.225-0.519,2.028c0,0.793,0.187,1.5,0.551,2.121c0.365,0.619,0.914,0.93,1.644,0.93
					C226.286,56.049,226.596,55.937,226.833,55.709z"/>
				<path fill="#333333" d="M230.57,56.5c0.527-0.049,0.861-0.139,0.998-0.271c0.14-0.13,0.207-0.483,0.207-1.06v-3.525
					c0-0.318-0.024-0.541-0.065-0.664c-0.073-0.202-0.229-0.304-0.467-0.304c-0.054,0-0.104,0.005-0.158,0.015
					c-0.051,0.012-0.201,0.051-0.446,0.119v-0.229l0.317-0.104c0.862-0.281,1.461-0.493,1.803-0.637
					c0.14-0.061,0.229-0.088,0.267-0.088c0.01,0.033,0.016,0.07,0.016,0.108v5.308c0,0.562,0.066,0.914,0.203,1.057
					c0.135,0.145,0.443,0.234,0.918,0.273v0.207h-3.59V56.5H230.57z M231.745,46.62c0.147-0.15,0.33-0.228,0.547-0.228
					c0.213,0,0.394,0.075,0.545,0.224c0.149,0.15,0.226,0.333,0.226,0.549c0,0.211-0.074,0.393-0.226,0.541
					c-0.151,0.149-0.332,0.225-0.545,0.225c-0.217,0-0.397-0.074-0.547-0.225c-0.146-0.148-0.224-0.33-0.224-0.541
					S231.6,46.772,231.745,46.62z"/>
				<path fill="#333333" d="M240.438,50.497c0.521,0.48,0.783,1.162,0.783,2.043h-4.693c0.05,1.143,0.308,1.972,0.775,2.492
					c0.469,0.521,1.021,0.783,1.664,0.783c0.516,0,0.953-0.137,1.309-0.406c0.354-0.271,0.681-0.652,0.98-1.149l0.26,0.088
					c-0.201,0.627-0.58,1.207-1.133,1.739c-0.557,0.533-1.234,0.8-2.039,0.8c-0.926,0-1.639-0.351-2.143-1.05
					c-0.508-0.699-0.76-1.506-0.76-2.416c0-0.99,0.293-1.847,0.879-2.564c0.586-0.72,1.348-1.079,2.291-1.079
					C239.305,49.776,239.913,50.017,240.438,50.497z M236.896,51.063c-0.155,0.266-0.271,0.602-0.338,1.005h3.117
					c-0.055-0.494-0.15-0.86-0.281-1.103c-0.24-0.434-0.646-0.65-1.213-0.65C237.622,50.315,237.193,50.563,236.896,51.063z"/>
				<path fill="#333333" d="M242.801,56.5c0.352-0.043,0.596-0.131,0.734-0.263c0.143-0.13,0.211-0.421,0.211-0.875v-3.754
					c0-0.312-0.029-0.53-0.086-0.66c-0.094-0.185-0.289-0.278-0.58-0.278c-0.043,0-0.088,0.002-0.135,0.008
					c-0.047,0.005-0.105,0.013-0.172,0.021v-0.258c0.199-0.061,0.68-0.213,1.432-0.459l0.695-0.229c0.033,0,0.055,0.012,0.061,0.037
					c0.01,0.023,0.014,0.058,0.014,0.104v1.085c0.453-0.424,0.805-0.714,1.062-0.872c0.383-0.242,0.78-0.361,1.196-0.361
					c0.332,0,0.638,0.096,0.914,0.289c0.529,0.373,0.795,1.041,0.795,2.002v3.449c0,0.354,0.072,0.612,0.213,0.77
					c0.142,0.158,0.378,0.238,0.714,0.244v0.207h-3.156V56.5c0.358-0.051,0.608-0.148,0.754-0.299
					c0.142-0.152,0.214-0.479,0.214-0.98v-3.153c0-0.425-0.078-0.774-0.234-1.054c-0.158-0.277-0.445-0.418-0.867-0.418
					c-0.289,0-0.584,0.1-0.883,0.297c-0.164,0.113-0.381,0.3-0.646,0.561v4.139c0,0.354,0.08,0.593,0.24,0.713
					c0.154,0.119,0.404,0.188,0.742,0.195v0.207h-3.229V56.5H242.801z"/>
				<path fill="#333333" d="M254.609,49.896v0.532h-1.506l-0.016,4.254c0,0.375,0.031,0.658,0.098,0.852
					c0.117,0.34,0.349,0.51,0.693,0.51c0.178,0,0.334-0.043,0.461-0.127c0.133-0.082,0.279-0.217,0.449-0.397l0.191,0.162
					l-0.164,0.222c-0.254,0.346-0.525,0.59-0.814,0.732c-0.281,0.141-0.559,0.213-0.824,0.213c-0.582,0-0.977-0.258-1.18-0.775
					c-0.115-0.279-0.174-0.67-0.174-1.167v-4.477h-0.805c-0.023-0.017-0.045-0.031-0.056-0.048
					c-0.012-0.016-0.019-0.032-0.019-0.059c0-0.048,0.013-0.087,0.031-0.113c0.023-0.026,0.094-0.09,0.211-0.188
					c0.34-0.28,0.584-0.51,0.734-0.685c0.152-0.174,0.504-0.637,1.061-1.385c0.066,0,0.104,0.004,0.115,0.014
					c0.012,0.012,0.019,0.048,0.019,0.111v1.819H254.609z"/>
				<path fill="#333333" d="M260.924,50.497c0.521,0.48,0.781,1.162,0.781,2.043h-4.691c0.047,1.143,0.305,1.972,0.775,2.492
					c0.467,0.521,1.021,0.783,1.664,0.783c0.514,0,0.951-0.137,1.305-0.406c0.355-0.271,0.684-0.652,0.984-1.149L262,54.347
					c-0.201,0.627-0.58,1.207-1.135,1.739c-0.551,0.533-1.232,0.8-2.035,0.8c-0.926,0-1.643-0.351-2.146-1.05
					c-0.506-0.699-0.756-1.506-0.756-2.416c0-0.99,0.293-1.847,0.879-2.564c0.586-0.72,1.348-1.079,2.291-1.079
					C259.792,49.776,260.398,50.017,260.924,50.497z M257.383,51.063c-0.158,0.266-0.271,0.602-0.34,1.005h3.119
					c-0.057-0.494-0.15-0.86-0.281-1.103c-0.24-0.434-0.645-0.65-1.213-0.65C258.105,50.315,257.68,50.563,257.383,51.063z"/>
			</g>
			<g>
				<path fill="#333333" d="M108.573,72.639c0.58-0.055,0.943-0.166,1.086-0.34c0.143-0.17,0.215-0.569,0.215-1.196v-6.556
					c0-0.531-0.08-0.881-0.24-1.047c-0.162-0.164-0.514-0.269-1.061-0.312v-0.282h4.189c0.871,0,1.598,0.111,2.178,0.333
					c1.105,0.419,1.656,1.188,1.656,2.31c0,0.754-0.244,1.332-0.736,1.734c-0.488,0.401-1.154,0.67-1.996,0.797l3.117,3.842
					c0.191,0.234,0.385,0.404,0.576,0.514c0.191,0.105,0.438,0.175,0.738,0.204v0.28h-2.438l-3.785-4.662l-0.664,0.035v2.983
					c0,0.56,0.086,0.914,0.256,1.063c0.17,0.15,0.541,0.248,1.111,0.299v0.279h-4.203L108.573,72.639L108.573,72.639z
					 M113.745,67.394c0.803-0.33,1.203-0.951,1.203-1.86c0-0.873-0.357-1.472-1.078-1.791c-0.385-0.173-0.895-0.26-1.529-0.26
					c-0.43,0-0.691,0.032-0.787,0.096c-0.096,0.06-0.145,0.203-0.145,0.431v3.726C112.499,67.692,113.276,67.581,113.745,67.394z"/>
				<path fill="#333333" d="M124.436,66.709c0.523,0.479,0.783,1.16,0.783,2.043h-4.691c0.051,1.14,0.309,1.971,0.777,2.49
					c0.469,0.521,1.021,0.782,1.66,0.782c0.52,0,0.955-0.134,1.309-0.403c0.355-0.271,0.684-0.654,0.984-1.151l0.258,0.089
					c-0.203,0.627-0.582,1.206-1.137,1.738c-0.553,0.533-1.23,0.801-2.033,0.801c-0.928,0-1.643-0.35-2.146-1.051
					c-0.506-0.698-0.758-1.504-0.758-2.416c0-0.99,0.293-1.846,0.881-2.563c0.584-0.72,1.348-1.079,2.289-1.079
					C123.307,65.988,123.915,66.229,124.436,66.709z M120.899,67.274c-0.16,0.266-0.271,0.602-0.342,1.006h3.119
					c-0.055-0.494-0.148-0.859-0.281-1.104c-0.24-0.432-0.646-0.648-1.213-0.648C121.624,66.528,121.194,66.777,120.899,67.274z"/>
				<path fill="#333333" d="M127.303,70.592h0.244c0.115,0.562,0.266,0.992,0.459,1.294c0.344,0.551,0.846,0.827,1.51,0.827
					c0.369,0,0.66-0.104,0.875-0.308c0.213-0.204,0.32-0.469,0.32-0.793c0-0.209-0.062-0.407-0.186-0.601
					c-0.121-0.191-0.34-0.379-0.648-0.561l-0.828-0.475c-0.605-0.325-1.051-0.652-1.338-0.982c-0.287-0.328-0.432-0.72-0.432-1.168
					c0-0.551,0.199-1.005,0.594-1.359s0.889-0.532,1.486-0.532c0.26,0,0.545,0.051,0.859,0.149c0.312,0.098,0.49,0.146,0.529,0.146
					c0.086,0,0.152-0.012,0.193-0.038c0.037-0.024,0.072-0.063,0.102-0.116h0.178l0.051,2.062h-0.229
					c-0.098-0.479-0.232-0.853-0.398-1.117c-0.307-0.492-0.746-0.737-1.322-0.737c-0.344,0-0.615,0.104-0.812,0.316
					c-0.197,0.213-0.297,0.461-0.297,0.747c0,0.452,0.34,0.856,1.021,1.211l0.975,0.524c1.049,0.571,1.572,1.236,1.572,1.996
					c0,0.58-0.217,1.057-0.652,1.426c-0.434,0.369-1.004,0.555-1.707,0.555c-0.297,0-0.631-0.049-1.004-0.148
					c-0.373-0.099-0.596-0.146-0.664-0.146c-0.059,0-0.109,0.021-0.154,0.062c-0.047,0.041-0.078,0.092-0.102,0.151h-0.195V70.592z"
					/>
				<path fill="#333333" d="M133.127,75.973c0.463-0.031,0.75-0.129,0.877-0.297c0.125-0.167,0.188-0.432,0.188-0.79v-7.095
					c0-0.375-0.047-0.615-0.137-0.72c-0.09-0.106-0.262-0.159-0.512-0.159c-0.059,0-0.105,0.002-0.152,0.008
					c-0.049,0.004-0.115,0.015-0.205,0.028v-0.243l0.703-0.229c0.023-0.005,0.521-0.174,1.484-0.511
					c0.025,0,0.045,0.013,0.057,0.035c0.012,0.021,0.019,0.047,0.019,0.076v0.998c0.325-0.326,0.61-0.566,0.856-0.725
					c0.445-0.275,0.898-0.415,1.367-0.415c0.68,0,1.266,0.291,1.754,0.869c0.49,0.577,0.736,1.368,0.736,2.372
					c0,0.984-0.295,1.877-0.885,2.68c-0.586,0.803-1.328,1.204-2.219,1.204c-0.277,0-0.517-0.035-0.718-0.103
					c-0.313-0.105-0.604-0.295-0.872-0.571v2.425c0,0.498,0.081,0.802,0.243,0.916c0.162,0.113,0.519,0.189,1.063,0.229v0.26h-3.649
					L133.127,75.973L133.127,75.973z M136.043,72.303c0.254,0.166,0.553,0.248,0.896,0.248c0.533,0,0.988-0.266,1.365-0.795
					c0.377-0.527,0.562-1.266,0.562-2.211c0-0.904-0.193-1.58-0.587-2.028c-0.391-0.445-0.846-0.671-1.362-0.671
					c-0.365,0-0.694,0.111-0.996,0.335c-0.303,0.225-0.453,0.444-0.453,0.659v3.714C135.598,71.89,135.79,72.139,136.043,72.303z"/>
				<path fill="#333333" d="M142.59,67.004c0.623-0.678,1.424-1.017,2.406-1.017c0.975,0,1.781,0.32,2.422,0.961
					c0.643,0.642,0.961,1.493,0.961,2.558c0,0.979-0.309,1.832-0.932,2.556c-0.621,0.726-1.424,1.088-2.408,1.088
					c-0.945,0-1.746-0.348-2.4-1.043c-0.656-0.694-0.984-1.565-0.984-2.614C141.654,68.511,141.967,67.682,142.59,67.004z
					 M143.77,66.816c-0.494,0.448-0.74,1.22-0.74,2.319c0,0.877,0.197,1.695,0.595,2.453c0.399,0.759,0.951,1.139,1.655,1.139
					c0.554,0,0.979-0.253,1.277-0.76c0.301-0.508,0.449-1.174,0.449-1.997c0-0.853-0.191-1.654-0.57-2.409
					c-0.381-0.752-0.932-1.131-1.649-1.131C144.395,66.431,144.055,66.561,143.77,66.816z"/>
				<path fill="#333333" d="M149.762,72.713c0.35-0.045,0.594-0.133,0.734-0.262c0.141-0.132,0.213-0.424,0.213-0.877v-3.754
					c0-0.312-0.031-0.533-0.09-0.66c-0.094-0.187-0.287-0.277-0.576-0.277c-0.045,0-0.092,0.002-0.137,0.008
					c-0.049,0.005-0.107,0.012-0.174,0.021v-0.26c0.201-0.059,0.68-0.213,1.434-0.459l0.693-0.229c0.037,0,0.055,0.012,0.062,0.037
					c0.009,0.025,0.013,0.061,0.013,0.104v1.086c0.453-0.424,0.807-0.715,1.062-0.872c0.383-0.239,0.78-0.36,1.194-0.36
					c0.334,0,0.64,0.096,0.914,0.287c0.531,0.375,0.797,1.041,0.797,2.004V71.7c0,0.354,0.07,0.611,0.216,0.771
					c0.139,0.157,0.377,0.237,0.706,0.243v0.205h-3.153v-0.205c0.358-0.049,0.61-0.149,0.754-0.299
					c0.144-0.15,0.216-0.478,0.216-0.979V68.28c0-0.425-0.08-0.775-0.234-1.053c-0.156-0.28-0.445-0.418-0.867-0.418
					c-0.291,0-0.582,0.098-0.883,0.294c-0.166,0.112-0.383,0.302-0.646,0.562v4.139c0,0.355,0.078,0.592,0.236,0.713
					s0.406,0.188,0.746,0.195v0.207h-3.229L149.762,72.713L149.762,72.713z"/>
				<path fill="#333333" d="M158.497,70.592h0.244c0.112,0.562,0.268,0.992,0.454,1.294c0.347,0.551,0.851,0.827,1.515,0.827
					c0.367,0,0.658-0.104,0.873-0.308c0.213-0.204,0.319-0.469,0.319-0.793c0-0.209-0.061-0.407-0.184-0.601
					c-0.125-0.191-0.34-0.379-0.65-0.561l-0.83-0.475c-0.604-0.325-1.051-0.652-1.336-0.982c-0.284-0.328-0.426-0.72-0.426-1.168
					c0-0.551,0.193-1.005,0.588-1.359c0.394-0.354,0.89-0.532,1.486-0.532c0.262,0,0.547,0.051,0.861,0.149
					c0.312,0.098,0.488,0.146,0.527,0.146c0.09,0,0.151-0.012,0.19-0.038c0.041-0.024,0.074-0.063,0.104-0.116h0.178l0.051,2.062
					h-0.229c-0.099-0.479-0.23-0.853-0.398-1.117c-0.305-0.492-0.746-0.737-1.324-0.737c-0.344,0-0.615,0.104-0.812,0.316
					c-0.195,0.213-0.294,0.461-0.294,0.747c0,0.452,0.339,0.856,1.021,1.211l0.974,0.524c1.049,0.571,1.574,1.236,1.574,1.996
					c0,0.58-0.218,1.057-0.652,1.426c-0.434,0.369-1.004,0.555-1.707,0.555c-0.293,0-0.629-0.049-1.004-0.148
					c-0.373-0.099-0.594-0.146-0.662-0.146c-0.061,0-0.111,0.021-0.156,0.062c-0.043,0.041-0.078,0.092-0.104,0.151h-0.191
					L158.497,70.592L158.497,70.592z"/>
				<path fill="#333333" d="M165.872,69.661c0.453-0.296,1.356-0.697,2.713-1.203v-0.631c0-0.5-0.051-0.852-0.147-1.048
					c-0.168-0.33-0.515-0.495-1.041-0.495c-0.252,0-0.49,0.063-0.719,0.191c-0.228,0.134-0.341,0.314-0.341,0.547
					c0,0.061,0.015,0.158,0.039,0.3c0.022,0.142,0.035,0.229,0.035,0.271c0,0.274-0.093,0.468-0.272,0.575
					c-0.103,0.064-0.228,0.097-0.369,0.097c-0.222,0-0.392-0.073-0.511-0.218c-0.116-0.146-0.178-0.308-0.178-0.485
					c0-0.345,0.213-0.705,0.642-1.082c0.424-0.377,1.051-0.565,1.873-0.565c0.954,0,1.602,0.312,1.942,0.933
					c0.183,0.339,0.272,0.835,0.272,1.485v2.963c0,0.285,0.019,0.481,0.06,0.592c0.063,0.189,0.196,0.287,0.399,0.287
					c0.111,0,0.207-0.016,0.279-0.051c0.074-0.035,0.201-0.119,0.385-0.252v0.383c-0.158,0.193-0.328,0.352-0.51,0.475
					c-0.277,0.188-0.559,0.281-0.844,0.281c-0.334,0-0.576-0.109-0.727-0.325c-0.152-0.216-0.232-0.476-0.248-0.776
					c-0.373,0.326-0.693,0.567-0.961,0.725c-0.447,0.266-0.873,0.398-1.277,0.398c-0.426,0-0.791-0.148-1.102-0.447
					c-0.312-0.297-0.466-0.676-0.466-1.133C164.801,70.734,165.159,70.139,165.872,69.661z M168.584,68.827
					c-0.568,0.187-1.035,0.394-1.404,0.62c-0.709,0.438-1.062,0.935-1.062,1.492c0,0.448,0.146,0.776,0.44,0.99
					c0.193,0.137,0.406,0.207,0.644,0.207c0.323,0,0.639-0.093,0.937-0.273c0.297-0.183,0.446-0.414,0.446-0.694L168.584,68.827
					L168.584,68.827z"/>
				<path fill="#333333" d="M171.665,63.521v-0.252c0.563-0.129,1.069-0.271,1.521-0.427c0.449-0.159,0.691-0.237,0.724-0.237
					c0.012,0.028,0.019,0.06,0.019,0.088v4.5c0.127-0.235,0.317-0.46,0.575-0.673c0.453-0.368,0.976-0.555,1.562-0.555
					c0.726,0,1.34,0.308,1.854,0.918c0.513,0.609,0.767,1.402,0.767,2.38c0,1.044-0.33,1.938-0.996,2.683
					c-0.664,0.743-1.539,1.115-2.623,1.115c-0.547,0-1.084-0.107-1.609-0.326c-0.527-0.216-0.793-0.434-0.793-0.648v-7.812
					c0-0.286-0.039-0.489-0.119-0.608c-0.078-0.121-0.26-0.184-0.545-0.184L171.665,63.521z M174.479,72.383
					c0.34,0.111,0.635,0.168,0.89,0.168c0.688,0,1.194-0.26,1.526-0.775c0.332-0.52,0.496-1.142,0.496-1.875
					c0-0.732-0.154-1.41-0.461-2.031c-0.312-0.623-0.811-0.935-1.504-0.935c-0.346,0-0.689,0.104-1.021,0.319
					c-0.334,0.216-0.5,0.488-0.5,0.815v3.763C173.947,72.09,174.141,72.274,174.479,72.383z"/>
				<path fill="#333333" d="M180.124,72.713c0.528-0.049,0.862-0.142,1-0.271c0.14-0.131,0.207-0.483,0.207-1.062v-3.523
					c0-0.32-0.021-0.542-0.063-0.666c-0.076-0.202-0.23-0.302-0.468-0.302c-0.055,0-0.106,0.005-0.159,0.014
					c-0.052,0.011-0.199,0.052-0.445,0.118v-0.229l0.316-0.104c0.862-0.28,1.463-0.492,1.805-0.636
					c0.137-0.059,0.227-0.09,0.266-0.09c0.01,0.035,0.016,0.072,0.016,0.111v5.307c0,0.562,0.066,0.912,0.201,1.058
					c0.137,0.142,0.443,0.233,0.922,0.272v0.205h-3.596L180.124,72.713L180.124,72.713z M181.301,62.831
					c0.146-0.149,0.33-0.227,0.547-0.227c0.213,0,0.394,0.074,0.543,0.223c0.15,0.15,0.226,0.334,0.226,0.549
					c0,0.213-0.074,0.392-0.226,0.541c-0.149,0.148-0.33,0.225-0.543,0.225c-0.217,0-0.4-0.075-0.547-0.225
					c-0.148-0.149-0.221-0.328-0.221-0.541C181.081,63.167,181.152,62.983,181.301,62.831z"/>
				<path fill="#333333" d="M184.997,72.713c0.459-0.045,0.769-0.139,0.933-0.276c0.163-0.142,0.241-0.416,0.241-0.823v-7.22
					c0-0.326-0.022-0.55-0.078-0.674c-0.1-0.207-0.301-0.312-0.6-0.312c-0.07,0-0.146,0.008-0.228,0.022s-0.182,0.036-0.307,0.065
					v-0.244c0.666-0.176,1.467-0.412,2.4-0.707c0.037,0,0.057,0.014,0.065,0.043s0.011,0.094,0.011,0.191v8.86
					c0,0.428,0.073,0.705,0.223,0.832c0.146,0.125,0.451,0.205,0.916,0.239v0.205h-3.578L184.997,72.713L184.997,72.713z"/>
				<path fill="#333333" d="M189.838,72.713c0.527-0.049,0.859-0.142,0.996-0.271c0.139-0.131,0.207-0.483,0.207-1.062v-3.523
					c0-0.32-0.021-0.542-0.066-0.666c-0.074-0.202-0.229-0.302-0.467-0.302c-0.053,0-0.105,0.005-0.156,0.014
					c-0.053,0.011-0.201,0.052-0.449,0.118v-0.229l0.32-0.104c0.861-0.28,1.463-0.492,1.803-0.636
					c0.138-0.059,0.226-0.09,0.267-0.09c0.011,0.035,0.017,0.072,0.017,0.111v5.307c0,0.562,0.065,0.912,0.2,1.058
					c0.138,0.142,0.443,0.233,0.921,0.272v0.205h-3.591L189.838,72.713L189.838,72.713z M191.014,62.831
					c0.146-0.149,0.326-0.227,0.543-0.227c0.215,0,0.396,0.074,0.545,0.223c0.15,0.15,0.228,0.334,0.228,0.549
					c0,0.213-0.076,0.392-0.228,0.541c-0.149,0.148-0.33,0.225-0.545,0.225c-0.217,0-0.396-0.075-0.543-0.225
					s-0.225-0.328-0.225-0.541C190.79,63.167,190.866,62.983,191.014,62.831z"/>
				<path fill="#333333" d="M198.971,66.172c0.197,0.104,0.387,0.248,0.57,0.43v-2.35c0-0.301-0.033-0.508-0.1-0.621
					c-0.068-0.112-0.228-0.17-0.479-0.17c-0.058,0-0.108,0.002-0.155,0.007c-0.043,0.006-0.14,0.015-0.293,0.03v-0.244l0.604-0.155
					c0.223-0.058,0.445-0.121,0.666-0.185c0.223-0.062,0.418-0.125,0.586-0.186c0.076-0.023,0.207-0.07,0.391-0.141l0.043,0.016
					l-0.014,0.775c-0.006,0.281-0.012,0.568-0.014,0.869c-0.006,0.297-0.01,0.59-0.01,0.881l-0.015,6.039
					c0,0.318,0.039,0.543,0.119,0.67c0.077,0.131,0.286,0.192,0.627,0.192c0.055,0,0.108-0.002,0.162-0.003
					c0.055-0.003,0.106-0.009,0.161-0.019v0.243c-0.026,0.01-0.387,0.133-1.069,0.369l-1.16,0.438l-0.051-0.066v-0.908
					c-0.276,0.299-0.517,0.514-0.72,0.643c-0.358,0.223-0.774,0.333-1.248,0.333c-0.838,0-1.518-0.323-2.034-0.974
					c-0.521-0.646-0.781-1.396-0.781-2.248c0-1.069,0.312-1.986,0.937-2.752c0.623-0.769,1.387-1.151,2.287-1.151
					C198.34,65.936,198.67,66.016,198.971,66.172z M199.188,71.92c0.232-0.225,0.354-0.438,0.354-0.642v-3.171
					c0-0.64-0.172-1.092-0.515-1.355c-0.344-0.263-0.678-0.396-1.002-0.396c-0.621,0-1.104,0.274-1.448,0.823
					c-0.345,0.552-0.519,1.227-0.519,2.029c0,0.793,0.187,1.5,0.551,2.121c0.367,0.621,0.916,0.931,1.646,0.931
					C198.639,72.262,198.947,72.149,199.188,71.92z"/>
				<path fill="#333333" d="M204.241,69.661c0.452-0.296,1.356-0.697,2.715-1.203v-0.631c0-0.5-0.054-0.852-0.149-1.048
					c-0.168-0.33-0.517-0.495-1.041-0.495c-0.252,0-0.492,0.063-0.72,0.191c-0.226,0.134-0.34,0.314-0.34,0.547
					c0,0.061,0.015,0.158,0.037,0.3s0.034,0.229,0.034,0.271c0,0.274-0.09,0.468-0.272,0.575c-0.103,0.064-0.223,0.097-0.366,0.097
					c-0.222,0-0.392-0.073-0.511-0.218c-0.116-0.146-0.178-0.308-0.178-0.485c0-0.345,0.215-0.705,0.639-1.082
					c0.427-0.377,1.052-0.565,1.875-0.565c0.955,0,1.603,0.312,1.94,0.933c0.185,0.339,0.273,0.835,0.273,1.485v2.963
					c0,0.285,0.021,0.481,0.062,0.592c0.062,0.189,0.196,0.287,0.397,0.287c0.113,0,0.207-0.016,0.281-0.051
					c0.072-0.035,0.201-0.119,0.385-0.252v0.383c-0.158,0.193-0.328,0.352-0.51,0.475c-0.277,0.188-0.557,0.281-0.844,0.281
					c-0.334,0-0.578-0.109-0.727-0.325c-0.15-0.216-0.234-0.476-0.248-0.776c-0.375,0.326-0.695,0.567-0.961,0.725
					c-0.447,0.266-0.875,0.398-1.279,0.398c-0.422,0-0.791-0.148-1.101-0.447c-0.311-0.297-0.467-0.676-0.467-1.133
					C203.168,70.734,203.525,70.139,204.241,69.661z M206.956,68.827c-0.569,0.187-1.037,0.394-1.408,0.62
					c-0.707,0.438-1.063,0.935-1.063,1.492c0,0.448,0.147,0.776,0.445,0.99c0.192,0.137,0.405,0.207,0.643,0.207
					c0.324,0,0.637-0.093,0.934-0.273c0.301-0.183,0.451-0.414,0.451-0.694L206.956,68.827L206.956,68.827z"/>
				<path fill="#333333" d="M214.557,66.172c0.195,0.104,0.385,0.248,0.568,0.43v-2.35c0-0.301-0.033-0.508-0.102-0.621
					c-0.064-0.112-0.226-0.17-0.476-0.17c-0.06,0-0.11,0.002-0.155,0.007c-0.045,0.006-0.144,0.015-0.295,0.03v-0.244l0.604-0.155
					c0.221-0.058,0.442-0.121,0.666-0.185c0.221-0.062,0.418-0.125,0.582-0.186c0.079-0.023,0.213-0.07,0.393-0.141l0.046,0.016
					l-0.017,0.775c-0.004,0.281-0.011,0.568-0.015,0.869c-0.006,0.297-0.008,0.59-0.008,0.881l-0.016,6.039
					c0,0.318,0.039,0.543,0.117,0.67c0.08,0.131,0.289,0.192,0.629,0.192c0.055,0,0.109-0.002,0.164-0.003
					c0.053-0.003,0.107-0.009,0.162-0.019v0.243c-0.031,0.01-0.387,0.133-1.072,0.369l-1.16,0.438l-0.051-0.066v-0.908
					c-0.275,0.299-0.516,0.514-0.717,0.643c-0.359,0.223-0.777,0.333-1.248,0.333c-0.838,0-1.518-0.323-2.037-0.974
					c-0.521-0.646-0.779-1.396-0.779-2.248c0-1.069,0.312-1.986,0.936-2.752c0.623-0.769,1.386-1.151,2.285-1.151
					C213.926,65.936,214.256,66.016,214.557,66.172z M214.77,71.92c0.236-0.225,0.355-0.438,0.355-0.642v-3.171
					c0-0.64-0.172-1.092-0.514-1.355c-0.342-0.263-0.676-0.396-1.002-0.396c-0.619,0-1.104,0.274-1.447,0.823
					c-0.344,0.552-0.518,1.227-0.518,2.029c0,0.793,0.186,1.5,0.551,2.121s0.914,0.931,1.643,0.931
					C214.223,72.262,214.536,72.149,214.77,71.92z"/>
				<path fill="#333333" d="M222.803,72.639c0.598-0.064,0.967-0.172,1.113-0.327c0.145-0.153,0.217-0.558,0.217-1.209v-6.556
					c0-0.537-0.08-0.887-0.242-1.055c-0.164-0.162-0.524-0.266-1.088-0.305v-0.282h8.062l0.053,2.166h-0.422
					c-0.104-0.69-0.299-1.13-0.584-1.313c-0.285-0.182-0.85-0.275-1.693-0.275h-2.074c-0.203,0-0.334,0.036-0.387,0.105
					c-0.061,0.067-0.086,0.203-0.086,0.404v3.377h2.193c0.645,0,1.057-0.095,1.234-0.285s0.317-0.58,0.428-1.162h0.354v3.494h-0.354
					c-0.113-0.586-0.26-0.974-0.437-1.162c-0.178-0.191-0.586-0.285-1.228-0.285h-2.192v3.311c0,0.555,0.084,0.907,0.254,1.062
					c0.171,0.154,0.541,0.254,1.111,0.298v0.28h-4.234L222.803,72.639L222.803,72.639z"/>
				<path fill="#333333" d="M231.999,72.713c0.524-0.049,0.856-0.142,0.996-0.271c0.137-0.131,0.207-0.483,0.207-1.062v-3.523
					c0-0.32-0.021-0.542-0.065-0.666c-0.074-0.202-0.23-0.302-0.468-0.302c-0.056,0-0.106,0.005-0.157,0.014
					c-0.054,0.011-0.199,0.052-0.447,0.118v-0.229l0.315-0.104c0.863-0.28,1.466-0.492,1.806-0.636
					c0.139-0.059,0.227-0.09,0.266-0.09c0.01,0.035,0.014,0.072,0.014,0.111v5.307c0,0.562,0.068,0.912,0.203,1.058
					c0.135,0.142,0.443,0.233,0.92,0.272v0.205H232L231.999,72.713L231.999,72.713z M233.172,62.831
					c0.146-0.149,0.33-0.227,0.545-0.227c0.213,0,0.393,0.074,0.543,0.223c0.152,0.15,0.227,0.334,0.227,0.549
					c0,0.213-0.073,0.392-0.227,0.541c-0.15,0.148-0.33,0.225-0.543,0.225c-0.215,0-0.398-0.075-0.545-0.225
					c-0.148-0.149-0.223-0.328-0.223-0.541C232.95,63.167,233.023,62.983,233.172,62.831z"/>
				<path fill="#333333" d="M237.346,70.592h0.244c0.113,0.562,0.266,0.992,0.459,1.294c0.342,0.551,0.846,0.827,1.51,0.827
					c0.369,0,0.658-0.104,0.875-0.308c0.213-0.204,0.32-0.469,0.32-0.793c0-0.209-0.062-0.407-0.186-0.601
					c-0.123-0.191-0.34-0.379-0.648-0.561l-0.83-0.475c-0.605-0.325-1.049-0.652-1.336-0.982c-0.287-0.328-0.43-0.72-0.43-1.168
					c0-0.551,0.199-1.005,0.594-1.359c0.393-0.354,0.887-0.532,1.482-0.532c0.262,0,0.549,0.051,0.861,0.149
					c0.311,0.098,0.487,0.146,0.528,0.146c0.088,0,0.151-0.012,0.19-0.038c0.039-0.024,0.076-0.063,0.105-0.116h0.176l0.053,2.062
					h-0.229c-0.102-0.479-0.234-0.853-0.402-1.117c-0.303-0.492-0.744-0.737-1.32-0.737c-0.348,0-0.618,0.104-0.812,0.316
					c-0.198,0.213-0.297,0.461-0.297,0.747c0,0.452,0.341,0.856,1.021,1.211l0.977,0.524c1.049,0.571,1.572,1.236,1.572,1.996
					c0,0.58-0.217,1.057-0.652,1.426s-1.004,0.555-1.707,0.555c-0.295,0-0.629-0.049-1.006-0.148
					c-0.371-0.099-0.592-0.146-0.662-0.146c-0.061,0-0.111,0.021-0.154,0.062c-0.045,0.041-0.078,0.092-0.104,0.151h-0.19v-2.386
					H237.346z"/>
				<path fill="#333333" d="M248.45,66.427c0.444,0.315,0.67,0.663,0.67,1.042c0,0.162-0.06,0.312-0.173,0.453
					c-0.11,0.139-0.286,0.209-0.522,0.209c-0.172,0-0.323-0.06-0.454-0.178c-0.13-0.119-0.226-0.289-0.285-0.518l-0.088-0.354
					c-0.062-0.263-0.177-0.447-0.332-0.556c-0.164-0.104-0.377-0.155-0.644-0.155c-0.562,0-1.037,0.246-1.425,0.736
					c-0.387,0.491-0.577,1.145-0.577,1.958c0,0.743,0.211,1.411,0.639,2.004c0.427,0.593,1,0.888,1.728,0.888
					c0.512,0,0.965-0.168,1.365-0.504c0.229-0.19,0.481-0.496,0.77-0.916l0.207,0.125c-0.281,0.592-0.578,1.06-0.887,1.404
					c-0.598,0.661-1.287,0.992-2.07,0.992c-0.77,0-1.451-0.305-2.039-0.909c-0.592-0.606-0.885-1.43-0.885-2.469
					c0-1.019,0.32-1.896,0.963-2.63c0.646-0.734,1.463-1.102,2.449-1.102C247.473,65.952,248.004,66.109,248.45,66.427z"/>
				<path fill="#333333" d="M252.09,69.661c0.455-0.296,1.357-0.697,2.711-1.203v-0.631c0-0.5-0.049-0.852-0.146-1.048
					c-0.168-0.33-0.516-0.495-1.043-0.495c-0.25,0-0.489,0.063-0.717,0.191c-0.225,0.134-0.34,0.314-0.34,0.547
					c0,0.061,0.012,0.158,0.037,0.3s0.037,0.229,0.037,0.271c0,0.274-0.09,0.468-0.271,0.575c-0.104,0.064-0.229,0.097-0.371,0.097
					c-0.223,0-0.391-0.073-0.51-0.218c-0.117-0.146-0.178-0.308-0.178-0.485c0-0.345,0.213-0.705,0.639-1.082
					c0.429-0.377,1.049-0.565,1.873-0.565c0.957,0,1.605,0.312,1.945,0.933c0.182,0.339,0.273,0.835,0.273,1.485v2.963
					c0,0.285,0.02,0.481,0.059,0.592c0.064,0.189,0.195,0.287,0.398,0.287c0.115,0,0.207-0.016,0.281-0.051s0.201-0.119,0.383-0.252
					v0.383c-0.158,0.193-0.326,0.352-0.51,0.475c-0.275,0.188-0.556,0.281-0.84,0.281c-0.337,0-0.578-0.109-0.73-0.325
					c-0.151-0.216-0.233-0.476-0.25-0.776c-0.372,0.326-0.69,0.567-0.956,0.725c-0.451,0.266-0.88,0.398-1.279,0.398
					c-0.426,0-0.793-0.148-1.103-0.447c-0.311-0.297-0.467-0.676-0.467-1.133C251.018,70.734,251.375,70.139,252.09,69.661z
					 M254.801,68.827c-0.564,0.187-1.035,0.394-1.402,0.62c-0.709,0.438-1.063,0.935-1.063,1.492c0,0.448,0.146,0.776,0.442,0.99
					c0.189,0.137,0.406,0.207,0.644,0.207c0.324,0,0.638-0.093,0.937-0.273c0.297-0.183,0.445-0.414,0.445-0.694v-2.342H254.801z"/>
				<path fill="#333333" d="M258.143,72.713c0.457-0.045,0.769-0.139,0.933-0.276c0.161-0.142,0.241-0.416,0.241-0.823v-7.22
					c0-0.326-0.024-0.55-0.08-0.674c-0.1-0.207-0.297-0.312-0.6-0.312c-0.068,0-0.145,0.008-0.225,0.022
					c-0.082,0.015-0.184,0.036-0.309,0.065v-0.244c0.666-0.176,1.467-0.412,2.401-0.707c0.037,0,0.058,0.014,0.065,0.043
					c0.007,0.029,0.011,0.094,0.011,0.191v8.86c0,0.428,0.071,0.705,0.222,0.832c0.147,0.125,0.45,0.205,0.914,0.239v0.205h-3.574
					V72.713L258.143,72.713z"/>
			</g>
			<g>
				<path fill="#333333" d="M99.897,65.174c0.07,0.078,0.125,0.214,0.164,0.406l0.641-2.231c0.018-0.062,0.029-0.116,0.035-0.167
					c0.006-0.048,0.008-0.092,0.008-0.126c0-0.144-0.027-0.232-0.078-0.269c-0.055-0.037-0.129-0.055-0.227-0.055
					c-0.062,0-0.119,0.002-0.172,0.006c-0.053,0.004-0.121,0.008-0.209,0.016v-0.178c0.412-0.056,0.982-0.149,1.713-0.285
					l0.049,0.056l-0.012,0.062l-1.074,3.912l-0.73,2.59c-0.016,0.058-0.027,0.111-0.035,0.161c-0.01,0.05-0.016,0.093-0.016,0.134
					c0,0.101,0.025,0.164,0.074,0.192c0.049,0.029,0.092,0.045,0.127,0.045c0.107,0,0.258-0.095,0.453-0.28
					c0.113-0.111,0.27-0.287,0.467-0.524l0.127,0.12l-0.078,0.113c-0.135,0.2-0.309,0.404-0.521,0.612
					c-0.375,0.368-0.713,0.552-1.014,0.552c-0.098,0-0.188-0.021-0.268-0.064c-0.148-0.088-0.225-0.242-0.225-0.469
					c0-0.076,0.012-0.197,0.033-0.363c0.021-0.168,0.055-0.35,0.1-0.549c-0.275,0.418-0.578,0.764-0.908,1.031
					c-0.328,0.27-0.686,0.403-1.074,0.403c-0.316,0-0.594-0.112-0.828-0.338c-0.236-0.226-0.355-0.569-0.355-1.038
					c0-0.79,0.365-1.604,1.096-2.438c0.727-0.828,1.436-1.244,2.125-1.244C99.573,64.965,99.778,65.034,99.897,65.174z
					 M97.184,69.215c0.104,0.166,0.275,0.248,0.52,0.248c0.52,0,1.018-0.418,1.498-1.25c0.461-0.783,0.691-1.524,0.691-2.225
					c0-0.221-0.035-0.404-0.109-0.549c-0.072-0.146-0.221-0.218-0.443-0.218c-0.555,0-1.094,0.444-1.611,1.338
					c-0.465,0.796-0.695,1.487-0.695,2.076C97.034,68.858,97.084,69.052,97.184,69.215z"/>
				<path fill="#333333" d="M102.913,66.12c0.719-0.755,1.461-1.133,2.227-1.133c0.283,0,0.508,0.066,0.676,0.195
					c0.166,0.131,0.25,0.324,0.25,0.583c0,0.521-0.305,0.968-0.916,1.339c-0.613,0.371-1.256,0.6-1.932,0.682l-0.309,0.037
					c-0.049,0.15-0.082,0.27-0.1,0.357c-0.018,0.09-0.027,0.201-0.027,0.336c0,0.318,0.105,0.566,0.314,0.746
					c0.207,0.178,0.455,0.266,0.742,0.266c0.271,0,0.561-0.09,0.865-0.271c0.176-0.106,0.428-0.295,0.758-0.567l0.141,0.125
					c-0.162,0.208-0.396,0.421-0.701,0.64c-0.541,0.387-1.084,0.582-1.629,0.582c-0.385,0-0.721-0.138-1.012-0.408
					c-0.291-0.272-0.436-0.662-0.436-1.17C101.825,67.653,102.186,66.875,102.913,66.12z M104.676,66.849
					c0.438-0.386,0.654-0.769,0.654-1.147c0-0.138-0.033-0.248-0.098-0.33c-0.066-0.08-0.162-0.121-0.289-0.121
					c-0.236,0-0.469,0.1-0.693,0.302c-0.227,0.202-0.432,0.428-0.613,0.682c-0.193,0.297-0.346,0.582-0.457,0.854
					c-0.062,0.145-0.127,0.31-0.197,0.494C103.676,67.479,104.241,67.234,104.676,66.849z"/>
			</g>
		</g>
		<g>
			<path fill="#990033" d="M55.485,33.279c-0.365-0.332-0.951-0.499-1.764-0.499h-2.33v3.945h1.994c0.322,0,0.643-0.019,0.967-0.054
				c0.32-0.036,0.607-0.12,0.859-0.25c0.252-0.13,0.455-0.316,0.609-0.563c0.154-0.245,0.23-0.577,0.23-0.997
				c0-0.375-0.051-0.693-0.146-0.952C55.805,33.647,55.667,33.438,55.485,33.279z M32.129,40.507h2.809l-1.363-4.816L32.129,40.507z
				 M66.935,31.372c-0.49-0.544-1.73-0.429-2.646,0.48c-1.098,1.088-1.131,2.996-1.131,2.996s1.928,0.011,3.217-1.044
				C67.234,33.102,67.662,32.179,66.935,31.372z M54.75,11.862c-18.998,0-34.4,15.402-34.4,34.401s15.402,34.399,34.4,34.399
				c19,0,34.4-15.4,34.4-34.399S73.75,11.862,54.75,11.862z M36.442,46.254l-0.801-2.943h-4.232l-0.861,2.943h-3.211l5-16.487h2.33
				l5.006,16.487H36.442z M44.821,46.254h-3.338V29.767h3.338V46.254z M56.36,46.254l-2.838-6.515h-2.131v6.515h-3.336V29.767h6.252
				c0.766,0,1.463,0.112,2.09,0.333c0.627,0.222,1.16,0.548,1.6,0.975c0.439,0.43,0.781,0.966,1.025,1.607
				c0.244,0.641,0.365,1.385,0.365,2.227c0,0.976-0.232,1.821-0.699,2.538c-0.467,0.717-1.131,1.237-1.994,1.562l3.387,7.246
				L56.36,46.254L56.36,46.254z M64.259,39.623c2.74,0.049,4.695-2.238,4.695-2.238v1.394c-1.498,2.499-4.008,3.802-6.02,2.969
				c-2.303-0.957-3.082-4.359-1.738-7.597c1.342-3.238,4.297-5.082,6.605-4.135c1.432,0.587,1.982,2.701-0.475,4.806
				c-1.918,1.645-4.227,1.515-4.227,1.515S62.505,39.591,64.259,39.623z M79.174,36.149v3.013l-5.246,0.022v7.069h-3.336V29.767
				h10.115v3.014h-6.779v3.369L79.174,36.149L79.174,36.149z"/>
			<path fill="#B9B9B7" d="M46,0C20.596,0,0,20.596,0,46.001c0,25.404,20.596,46,46,46c25.406,0,46-20.596,46-46
				C92,20.596,71.407,0,46,0z M54.75,80.665c-18.998,0-34.4-15.401-34.4-34.4s15.402-34.401,34.4-34.401
				c19,0,34.4,15.402,34.4,34.401S73.75,80.665,54.75,80.665z"/>
		</g>
	</g>
	<rect y="0.001" fill="none" width="262" height="92"/>
</g>
</svg>
